<?xml version="1.0" encoding="iso-8859-1"?>
<!DOCTYPE svg PUBLIC "-//W3C//DTD SVG 1.1//EN" "http://www.w3.org/Graphics/SVG/1.1/DTD/svg11.dtd">
<svg 
 version="1.1" xmlns="http://www.w3.org/2000/svg" xmlns:xlink="http://www.w3.org/1999/xlink" x="0px" y="0px" width="512px"
	 height="512px" viewBox="0 0 512 512" style="enable-background:new 0 0 512 512;" xml:space="preserve"
><g id="afcae5a789ccd549f9c6e2a2f8109e74"><g></g><g fill="#363030"><path style="display: inline;" d="M256,170.833c-62.714,0-113.556,50.849-113.556,113.556c0,62.709,50.841,113.556,113.556,113.556
		c62.713,0,113.555-50.847,113.555-113.556C369.555,221.683,318.713,170.833,256,170.833z M256,350.63
		c-36.584,0-66.24-29.66-66.24-66.24c0-36.581,29.656-66.241,66.24-66.241c36.584,0,66.241,29.66,66.241,66.241
		C322.24,320.97,292.584,350.63,256,350.63z M464.184,0.5h-56.777c-10.453,0-18.926,8.472-18.926,18.926v37.852H28.888V511.5
		h454.223V76.204V57.277V19.426C483.111,8.972,474.639,0.5,464.184,0.5z M256,426.333c-78.396,0-141.945-63.557-141.945-141.943
		c0-27.909,8.088-53.91,21.998-75.86c-1.02,0.066-2.037,0.155-3.072,0.155c-26.131,0-47.315-21.185-47.315-47.314
		c0-26.13,21.184-47.314,47.315-47.314c26.13,0,47.314,21.184,47.314,47.314c0,1.034-0.088,2.051-0.155,3.071
		c21.95-13.909,47.95-21.998,75.859-21.998c78.395,0,141.946,63.558,141.946,141.946C397.945,362.776,334.395,426.333,256,426.333z"></path></g></g></svg>